<svg width="246" height="50" viewBox="0 0 246 50" fill="none" xmlns="http://www.w3.org/2000/svg">
<path d="M17.0166 16.6973V33.1435H8.7583C6.56806 33.1435 4.46753 32.2735 2.9188 30.7247C1.37007 29.176 0.5 27.0755 0.5 24.8852C0.5 22.695 1.37007 20.5945 2.9188 19.0458C4.46753 17.497 6.56806 16.627 8.7583 16.627C9.03093 16.627 9.29917 16.6401 9.56522 16.6665H9.58281L17.0166 16.6973Z" fill="#80B4FF"/>
<path d="M50.05 25.1754C50.05 27.3656 49.18 29.4661 47.6312 31.0148C46.0825 32.5636 43.982 33.4336 41.7917 33.4336C39.6015 33.4336 37.501 32.5636 35.9522 31.0148C34.4035 29.4661 33.5334 27.3656 33.5334 25.1754V16.8203L41.7917 16.9149C42.8764 16.9149 43.9505 17.1285 44.9526 17.5437C45.9547 17.9588 46.8651 18.5673 47.632 19.3344C48.3989 20.1015 49.0072 21.0122 49.422 22.0144C49.8369 23.0166 50.0503 24.0907 50.05 25.1754Z" fill="#80B4FF"/>
<path d="M33.5359 8.46753V16.8226L25.2754 16.7258H24.9324L17.0171 16.6928V8.46753C17.0525 6.30034 17.9382 4.23387 19.4833 2.71379C21.0284 1.1937 23.109 0.341797 25.2765 0.341797C27.444 0.341797 29.5246 1.1937 31.0697 2.71379C32.6148 4.23387 33.5005 6.30034 33.5359 8.46753Z" fill="#FFC12B"/>
<path d="M17.0171 33.1416H25.2754C26.9027 33.1414 28.4938 33.622 29.8488 34.523C31.2039 35.424 32.2626 36.7053 32.892 38.2059C33.5214 39.7066 33.6933 41.3597 33.3864 42.9578C33.0794 44.5559 32.3071 46.0276 31.1665 47.1883C30.0259 48.3489 28.5678 49.1468 26.9753 49.4815C25.3828 49.8163 23.727 49.6732 22.2156 49.07C20.7042 48.4669 19.4046 47.4307 18.4802 46.0915C17.5557 44.7523 17.0475 43.1699 17.0193 41.5428L17.0171 33.1416Z" fill="#FFC12B"/>
<path d="M72.178 24.576L78.29 33.92L84.434 24.576L85.778 36H91.4741L87.858 12.48L78.29 26.144L68.754 12.48L65.138 36H70.834L72.178 24.576ZM98.502 36H109.798V31.552H98.502V36ZM98.502 18.048H109.798V13.6H98.502V18.048ZM98.502 26.4H109.158V22.048H98.502V26.4ZM94.918 13.6V36H100.102V13.6H94.918ZM114.199 13.6V36H119.767V13.6H114.199ZM122.199 36C124.653 36 126.775 35.5413 128.567 34.624C130.359 33.7067 131.746 32.416 132.727 30.752C133.709 29.0667 134.199 27.0827 134.199 24.8C134.199 22.496 133.709 20.512 132.727 18.848C131.746 17.184 130.359 15.8933 128.567 14.976C126.775 14.0587 124.653 13.6 122.199 13.6H117.783V18.4H122.007C122.861 18.4 123.682 18.5067 124.471 18.72C125.282 18.9333 125.986 19.2853 126.583 19.776C127.202 20.2667 127.693 20.928 128.055 21.76C128.418 22.5707 128.599 23.584 128.599 24.8C128.599 26.016 128.418 27.04 128.055 27.872C127.693 28.6827 127.202 29.3333 126.583 29.824C125.986 30.3147 125.282 30.6667 124.471 30.88C123.682 31.0933 122.861 31.2 122.007 31.2H117.783V36H122.199Z" fill="#80B4FF"/>
<path d="M149.956 13.6L146.372 20.096L142.916 13.6H136.228L143.108 24.512L135.428 36H142.116L146.34 28.544L150.436 36H157.124L149.604 24.512L156.644 13.6H149.956ZM158.334 18.432H164.478V36H169.886V18.432H176.062V13.6H158.334V18.432ZM181.366 24.8C181.366 23.4773 181.622 22.3147 182.134 21.312C182.667 20.288 183.403 19.488 184.342 18.912C185.302 18.336 186.422 18.048 187.702 18.048C189.003 18.048 190.123 18.336 191.062 18.912C192.001 19.488 192.726 20.288 193.238 21.312C193.75 22.3147 194.006 23.4773 194.006 24.8C194.006 26.1227 193.739 27.296 193.206 28.32C192.694 29.3227 191.958 30.112 190.998 30.688C190.059 31.264 188.961 31.552 187.702 31.552C186.422 31.552 185.302 31.264 184.342 30.688C183.403 30.112 182.667 29.3227 182.134 28.32C181.622 27.296 181.366 26.1227 181.366 24.8ZM175.638 24.8C175.638 26.528 175.926 28.1173 176.502 29.568C177.099 31.0187 177.931 32.2773 178.998 33.344C180.086 34.4107 181.366 35.2427 182.838 35.84C184.31 36.416 185.931 36.704 187.702 36.704C189.451 36.704 191.062 36.416 192.534 35.84C194.006 35.2427 195.275 34.4107 196.342 33.344C197.43 32.2773 198.262 31.0187 198.838 29.568C199.435 28.1173 199.734 26.528 199.734 24.8C199.734 23.072 199.435 21.4933 198.838 20.064C198.241 18.6347 197.398 17.3973 196.31 16.352C195.222 15.3067 193.942 14.5067 192.47 13.952C191.019 13.376 189.43 13.088 187.702 13.088C185.995 13.088 184.406 13.376 182.934 13.952C181.462 14.5067 180.182 15.3067 179.094 16.352C178.006 17.3973 177.153 18.6347 176.534 20.064C175.937 21.4933 175.638 23.072 175.638 24.8ZM208.799 25.856L215.071 36H221.407L214.399 25.856H208.799ZM203.199 13.6V36H208.607V13.6H203.199ZM206.591 18.176H210.975C211.701 18.176 212.319 18.2933 212.831 18.528C213.365 18.7627 213.77 19.104 214.047 19.552C214.325 19.9787 214.463 20.5013 214.463 21.12C214.463 21.7387 214.325 22.272 214.047 22.72C213.77 23.1467 213.365 23.4773 212.831 23.712C212.319 23.9253 211.701 24.032 210.975 24.032H206.591V28.224H211.359C213.279 28.224 214.879 27.9147 216.159 27.296C217.439 26.6773 218.41 25.824 219.071 24.736C219.733 23.6267 220.063 22.3573 220.063 20.928C220.063 19.4773 219.733 18.208 219.071 17.12C218.41 16.0107 217.439 15.1467 216.159 14.528C214.879 13.9093 213.279 13.6 211.359 13.6H206.591V18.176ZM227.502 36H238.798V31.552H227.502V36ZM227.502 18.048H238.798V13.6H227.502V18.048ZM227.502 26.4H238.158V22.048H227.502V26.4ZM223.918 13.6V36H229.102V13.6H223.918Z" fill="#FFC12B"/>
</svg>
